<mxfile host="app.diagrams.net" modified="2021-02-19T16:35:40.647Z" agent="5.0 (Windows NT 10.0; Win64; x64) AppleWebKit/537.36 (KHTML, like Gecko) Chrome/88.0.4324.182 Safari/537.36" etag="bWY9g9lC_SB56MF768Q6" version="14.4.2" type="github">
  <diagram id="rQhccvOxW-MgDgox2bf5" name="Page-1">
    <mxGraphModel dx="2062" dy="1892" grid="1" gridSize="10" guides="1" tooltips="1" connect="1" arrows="1" fold="1" page="1" pageScale="1" pageWidth="1169" pageHeight="827" math="0" shadow="0">
      <root>
        <mxCell id="0" />
        <mxCell id="1" parent="0" />
        <mxCell id="OdURi6rOe0slorLZXRiP-24" value="" style="rounded=0;whiteSpace=wrap;html=1;fillColor=none;" parent="1" vertex="1">
          <mxGeometry x="20" y="-226" width="790" height="415" as="geometry" />
        </mxCell>
        <mxCell id="OdURi6rOe0slorLZXRiP-13" value="" style="rounded=0;whiteSpace=wrap;html=1;fillColor=none;" parent="1" vertex="1">
          <mxGeometry x="1160" y="-220" width="520" height="410" as="geometry" />
        </mxCell>
        <mxCell id="9OuG9oqcYKLen_dDnCQN-33" value="&lt;font style=&quot;font-size: 16px&quot;&gt;bcn-windows-02.hpicloud.net&lt;/font&gt;" style="text;html=1;resizable=0;autosize=1;align=center;verticalAlign=middle;points=[];fillColor=none;strokeColor=none;rounded=0;fontSize=24;fontColor=#B3B3B3;" parent="1" vertex="1">
          <mxGeometry x="1310" y="130" width="220" height="40" as="geometry" />
        </mxCell>
        <mxCell id="OdURi6rOe0slorLZXRiP-1" value="" style="group" parent="1" vertex="1" connectable="0">
          <mxGeometry x="1230" y="-300" width="403.5999999999999" height="480" as="geometry" />
        </mxCell>
        <mxCell id="9OuG9oqcYKLen_dDnCQN-19" value="" style="dashed=0;outlineConnect=0;html=1;align=center;labelPosition=center;verticalLabelPosition=bottom;verticalAlign=top;shape=mxgraph.weblogos.aws;fillColor=none;fontSize=24;fontColor=#007FFF;" parent="OdURi6rOe0slorLZXRiP-1" vertex="1">
          <mxGeometry x="300.0000000000001" y="15.2" width="63.6" height="58.400000000000006" as="geometry" />
        </mxCell>
        <mxCell id="OdURi6rOe0slorLZXRiP-4" value="" style="group" parent="OdURi6rOe0slorLZXRiP-1" vertex="1" connectable="0">
          <mxGeometry x="-62" y="240" width="160" height="90" as="geometry" />
        </mxCell>
        <mxCell id="k91EEGF3npk7O3WbyzjP-12" value="&lt;span style=&quot;color: rgb(0 , 127 , 255) ; font-size: 24px&quot;&gt;GW Power BI&lt;/span&gt;" style="text;html=1;resizable=0;autosize=1;align=center;verticalAlign=middle;points=[];fillColor=none;strokeColor=none;rounded=0;" parent="OdURi6rOe0slorLZXRiP-4" vertex="1">
          <mxGeometry y="70" width="160" height="20" as="geometry" />
        </mxCell>
        <mxCell id="k91EEGF3npk7O3WbyzjP-13" value="" style="outlineConnect=0;dashed=0;verticalLabelPosition=bottom;verticalAlign=top;align=center;html=1;shape=mxgraph.aws3.customer_gateway;fillColor=#F58534;gradientColor=none;fontSize=24;fontColor=#007FFF;" parent="OdURi6rOe0slorLZXRiP-4" vertex="1">
          <mxGeometry x="50" width="60" height="60" as="geometry" />
        </mxCell>
        <mxCell id="OdURi6rOe0slorLZXRiP-18" value="AWS HP Cloud" style="text;html=1;strokeColor=none;fillColor=none;align=center;verticalAlign=middle;whiteSpace=wrap;rounded=0;fontSize=24;fontColor=#007FFF;" parent="OdURi6rOe0slorLZXRiP-1" vertex="1">
          <mxGeometry x="60" y="53.599999999999994" width="210" height="20" as="geometry" />
        </mxCell>
        <mxCell id="OdURi6rOe0slorLZXRiP-19" value="" style="group" parent="OdURi6rOe0slorLZXRiP-1" vertex="1" connectable="0">
          <mxGeometry x="190.00000000000006" y="300" width="210" height="100" as="geometry" />
        </mxCell>
        <mxCell id="k91EEGF3npk7O3WbyzjP-7" value="" style="verticalLabelPosition=bottom;html=1;verticalAlign=top;align=center;strokeColor=none;fillColor=#00BEF2;shape=mxgraph.azure.sql_database;" parent="OdURi6rOe0slorLZXRiP-19" vertex="1">
          <mxGeometry x="86.25" width="37.5" height="50" as="geometry" />
        </mxCell>
        <mxCell id="OdURi6rOe0slorLZXRiP-9" value="Email-PowerApps&amp;nbsp;" style="text;html=1;resizable=0;autosize=1;align=center;verticalAlign=middle;points=[];fillColor=none;strokeColor=none;rounded=0;fontSize=24;fontColor=#007FFF;" parent="OdURi6rOe0slorLZXRiP-19" vertex="1">
          <mxGeometry y="70" width="210" height="30" as="geometry" />
        </mxCell>
        <mxCell id="OdURi6rOe0slorLZXRiP-20" value="" style="group" parent="OdURi6rOe0slorLZXRiP-1" vertex="1" connectable="0">
          <mxGeometry x="220.0000000000001" y="150.00000000000003" width="140" height="89.99999999999997" as="geometry" />
        </mxCell>
        <mxCell id="k91EEGF3npk7O3WbyzjP-6" value="" style="verticalLabelPosition=bottom;html=1;verticalAlign=top;align=center;strokeColor=none;fillColor=#00BEF2;shape=mxgraph.azure.sql_database;" parent="OdURi6rOe0slorLZXRiP-20" vertex="1">
          <mxGeometry x="51.25" width="37.5" height="50" as="geometry" />
        </mxCell>
        <mxCell id="OdURi6rOe0slorLZXRiP-8" value="GSS-Travel" style="text;html=1;resizable=0;autosize=1;align=center;verticalAlign=middle;points=[];fillColor=none;strokeColor=none;rounded=0;fontSize=24;fontColor=#007FFF;" parent="OdURi6rOe0slorLZXRiP-20" vertex="1">
          <mxGeometry y="59.99999999999997" width="140" height="30" as="geometry" />
        </mxCell>
        <mxCell id="OdURi6rOe0slorLZXRiP-21" style="edgeStyle=orthogonalEdgeStyle;rounded=0;orthogonalLoop=1;jettySize=auto;html=1;entryX=0;entryY=0.5;entryDx=0;entryDy=0;entryPerimeter=0;fontSize=24;fontColor=#007FFF;" parent="OdURi6rOe0slorLZXRiP-1" source="k91EEGF3npk7O3WbyzjP-13" target="k91EEGF3npk7O3WbyzjP-6" edge="1">
          <mxGeometry relative="1" as="geometry" />
        </mxCell>
        <mxCell id="OdURi6rOe0slorLZXRiP-22" style="edgeStyle=orthogonalEdgeStyle;rounded=0;orthogonalLoop=1;jettySize=auto;html=1;entryX=0;entryY=0.5;entryDx=0;entryDy=0;entryPerimeter=0;fontSize=24;fontColor=#007FFF;exitX=1;exitY=0.5;exitDx=0;exitDy=0;exitPerimeter=0;" parent="OdURi6rOe0slorLZXRiP-1" source="k91EEGF3npk7O3WbyzjP-13" target="k91EEGF3npk7O3WbyzjP-7" edge="1">
          <mxGeometry relative="1" as="geometry">
            <mxPoint x="80" y="280" as="sourcePoint" />
            <mxPoint x="281.25" y="185" as="targetPoint" />
            <Array as="points">
              <mxPoint x="160" y="270" />
              <mxPoint x="160" y="325" />
            </Array>
          </mxGeometry>
        </mxCell>
        <mxCell id="9OuG9oqcYKLen_dDnCQN-23" value="" style="shape=image;html=1;verticalAlign=top;verticalLabelPosition=bottom;labelBackgroundColor=#ffffff;imageAspect=0;aspect=fixed;image=https://cdn4.iconfinder.com/data/icons/flat-brand-logo-2/512/hp-128.png;fillColor=none;fontSize=24;fontColor=#007FFF;" parent="1" vertex="1">
          <mxGeometry x="1603.2" y="-294" width="73.6" height="73.6" as="geometry" />
        </mxCell>
        <mxCell id="OdURi6rOe0slorLZXRiP-25" style="edgeStyle=orthogonalEdgeStyle;rounded=0;orthogonalLoop=1;jettySize=auto;html=1;entryX=0;entryY=0.5;entryDx=0;entryDy=0;entryPerimeter=0;fontSize=24;fontColor=#007FFF;dashed=1;strokeWidth=3;" parent="1" source="9OuG9oqcYKLen_dDnCQN-34" target="k91EEGF3npk7O3WbyzjP-13" edge="1">
          <mxGeometry x="20" y="-800" as="geometry" />
        </mxCell>
        <mxCell id="OdURi6rOe0slorLZXRiP-66" value="" style="group" parent="1" vertex="1" connectable="0">
          <mxGeometry x="690" y="-800" width="720" height="423" as="geometry" />
        </mxCell>
        <mxCell id="OdURi6rOe0slorLZXRiP-58" value="" style="rounded=0;whiteSpace=wrap;html=1;fillColor=none;" parent="OdURi6rOe0slorLZXRiP-66" vertex="1">
          <mxGeometry y="73" width="720" height="350" as="geometry" />
        </mxCell>
        <mxCell id="9OuG9oqcYKLen_dDnCQN-20" value="" style="shape=image;html=1;verticalAlign=top;verticalLabelPosition=bottom;labelBackgroundColor=#ffffff;imageAspect=0;aspect=fixed;image=https://cdn3.iconfinder.com/data/icons/logos-brands-3/24/logo_brand_brands_logos_microsoft_store_windows-128.png;fillColor=none;fontSize=24;fontColor=#007FFF;" parent="OdURi6rOe0slorLZXRiP-66" vertex="1">
          <mxGeometry x="440" width="66" height="66" as="geometry" />
        </mxCell>
        <mxCell id="OdURi6rOe0slorLZXRiP-37" value="" style="group" parent="OdURi6rOe0slorLZXRiP-66" vertex="1" connectable="0">
          <mxGeometry x="20" y="202.25" width="260" height="68.5" as="geometry" />
        </mxCell>
        <mxCell id="k91EEGF3npk7O3WbyzjP-18" value="" style="rounded=0;whiteSpace=wrap;html=1;fontColor=#B3B3B3;fillColor=none;" parent="OdURi6rOe0slorLZXRiP-37" vertex="1">
          <mxGeometry width="260" height="68.5" as="geometry" />
        </mxCell>
        <mxCell id="k91EEGF3npk7O3WbyzjP-19" value="Power BI Dashboards" style="text;html=1;resizable=0;autosize=1;align=center;verticalAlign=middle;points=[];fillColor=none;strokeColor=none;rounded=0;fontSize=24;fontColor=#007FFF;" parent="OdURi6rOe0slorLZXRiP-37" vertex="1">
          <mxGeometry x="10" y="19" width="250" height="30" as="geometry" />
        </mxCell>
        <mxCell id="OdURi6rOe0slorLZXRiP-60" value="Office 365" style="text;html=1;strokeColor=none;fillColor=none;align=center;verticalAlign=middle;whiteSpace=wrap;rounded=0;fontSize=24;fontColor=#007FFF;" parent="OdURi6rOe0slorLZXRiP-66" vertex="1">
          <mxGeometry x="148" y="46" width="210" height="20" as="geometry" />
        </mxCell>
        <mxCell id="NLa3rDpAGL1zTHNRkFqQ-7" style="edgeStyle=orthogonalEdgeStyle;rounded=0;orthogonalLoop=1;jettySize=auto;html=1;exitX=0.5;exitY=1;exitDx=0;exitDy=0;entryX=0.5;entryY=0;entryDx=0;entryDy=0;" edge="1" parent="OdURi6rOe0slorLZXRiP-66" source="OdURi6rOe0slorLZXRiP-97" target="OdURi6rOe0slorLZXRiP-61">
          <mxGeometry relative="1" as="geometry" />
        </mxCell>
        <mxCell id="OdURi6rOe0slorLZXRiP-97" value="" style="rounded=0;whiteSpace=wrap;html=1;fontColor=#B3B3B3;fillColor=none;" parent="OdURi6rOe0slorLZXRiP-66" vertex="1">
          <mxGeometry x="470" y="80.75" width="90" height="68.5" as="geometry" />
        </mxCell>
        <mxCell id="OdURi6rOe0slorLZXRiP-98" value="Forms" style="text;html=1;resizable=0;autosize=1;align=center;verticalAlign=middle;points=[];fillColor=none;strokeColor=none;rounded=0;fontSize=24;fontColor=#007FFF;" parent="OdURi6rOe0slorLZXRiP-66" vertex="1">
          <mxGeometry x="474" y="102" width="80" height="30" as="geometry" />
        </mxCell>
        <mxCell id="OdURi6rOe0slorLZXRiP-62" value="Power Automate" style="text;html=1;resizable=0;autosize=1;align=center;verticalAlign=middle;points=[];fillColor=none;strokeColor=none;rounded=0;fontSize=24;fontColor=#007FFF;" parent="OdURi6rOe0slorLZXRiP-66" vertex="1">
          <mxGeometry x="440" y="221.5" width="190" height="30" as="geometry" />
        </mxCell>
        <mxCell id="NLa3rDpAGL1zTHNRkFqQ-6" style="edgeStyle=orthogonalEdgeStyle;rounded=0;orthogonalLoop=1;jettySize=auto;html=1;exitX=0.5;exitY=1;exitDx=0;exitDy=0;entryX=1;entryY=0.5;entryDx=0;entryDy=0;entryPerimeter=0;" edge="1" parent="OdURi6rOe0slorLZXRiP-66" source="OdURi6rOe0slorLZXRiP-61" target="OdURi6rOe0slorLZXRiP-35">
          <mxGeometry relative="1" as="geometry" />
        </mxCell>
        <mxCell id="OdURi6rOe0slorLZXRiP-61" value="" style="rounded=0;whiteSpace=wrap;html=1;fontColor=#B3B3B3;fillColor=none;" parent="OdURi6rOe0slorLZXRiP-66" vertex="1">
          <mxGeometry x="400" y="202.25" width="230" height="68.5" as="geometry" />
        </mxCell>
        <mxCell id="OdURi6rOe0slorLZXRiP-35" value="" style="outlineConnect=0;dashed=0;verticalLabelPosition=bottom;verticalAlign=top;align=center;html=1;shape=mxgraph.aws3.customer_gateway;fillColor=#F58534;gradientColor=none;fontSize=24;fontColor=#007FFF;" parent="OdURi6rOe0slorLZXRiP-66" vertex="1">
          <mxGeometry x="320" y="313" width="60" height="60" as="geometry" />
        </mxCell>
        <mxCell id="OdURi6rOe0slorLZXRiP-36" value="" style="group" parent="OdURi6rOe0slorLZXRiP-66" vertex="1" connectable="0">
          <mxGeometry x="225" y="313" width="270" height="102.5" as="geometry" />
        </mxCell>
        <mxCell id="9OuG9oqcYKLen_dDnCQN-38" value="Office Service Power BI" style="text;html=1;resizable=0;autosize=1;align=center;verticalAlign=middle;points=[];fillColor=none;strokeColor=none;rounded=0;fontSize=24;fontColor=#007FFF;" parent="OdURi6rOe0slorLZXRiP-36" vertex="1">
          <mxGeometry y="72.5" width="270" height="30" as="geometry" />
        </mxCell>
        <mxCell id="NLa3rDpAGL1zTHNRkFqQ-3" style="edgeStyle=orthogonalEdgeStyle;rounded=0;orthogonalLoop=1;jettySize=auto;html=1;entryX=0;entryY=0.5;entryDx=0;entryDy=0;entryPerimeter=0;" edge="1" parent="OdURi6rOe0slorLZXRiP-66" source="k91EEGF3npk7O3WbyzjP-18" target="OdURi6rOe0slorLZXRiP-35">
          <mxGeometry relative="1" as="geometry">
            <Array as="points">
              <mxPoint x="150" y="343" />
            </Array>
          </mxGeometry>
        </mxCell>
        <mxCell id="OdURi6rOe0slorLZXRiP-67" value="" style="endArrow=classic;html=1;fontSize=24;fontColor=#007FFF;entryX=0.145;entryY=0.145;entryDx=0;entryDy=0;entryPerimeter=0;dashed=1;strokeWidth=3;" parent="1" source="9OuG9oqcYKLen_dDnCQN-38" target="k91EEGF3npk7O3WbyzjP-13" edge="1">
          <mxGeometry x="20" y="-800" width="50" height="50" as="geometry">
            <mxPoint x="930" y="-140" as="sourcePoint" />
            <mxPoint x="980" y="-190" as="targetPoint" />
          </mxGeometry>
        </mxCell>
        <mxCell id="9OuG9oqcYKLen_dDnCQN-30" value="LogicApps (Sincro)" style="text;html=1;resizable=0;autosize=1;align=center;verticalAlign=middle;points=[];fillColor=none;strokeColor=none;rounded=0;fontSize=24;fontColor=#007FFF;" parent="1" vertex="1">
          <mxGeometry x="29" y="9" width="220" height="30" as="geometry" />
        </mxCell>
        <mxCell id="OdURi6rOe0slorLZXRiP-87" value="" style="group" parent="1" vertex="1" connectable="0">
          <mxGeometry x="290" y="9" width="230" height="139.25" as="geometry" />
        </mxCell>
        <mxCell id="OdURi6rOe0slorLZXRiP-85" value="" style="rounded=0;whiteSpace=wrap;html=1;fillColor=none;fontSize=29;fontColor=#007FFF;" parent="OdURi6rOe0slorLZXRiP-87" vertex="1">
          <mxGeometry width="230" height="120" as="geometry" />
        </mxCell>
        <mxCell id="OdURi6rOe0slorLZXRiP-86" value="&lt;font style=&quot;font-size: 16px&quot; color=&quot;#b3b3b3&quot;&gt;emailpowerapps.database.windows.net&lt;/font&gt;" style="text;html=1;strokeColor=none;fillColor=none;align=center;verticalAlign=middle;whiteSpace=wrap;rounded=0;fontSize=29;fontColor=#007FFF;" parent="OdURi6rOe0slorLZXRiP-87" vertex="1">
          <mxGeometry x="120" y="119.25" width="40" height="20" as="geometry" />
        </mxCell>
        <mxCell id="OdURi6rOe0slorLZXRiP-89" value="" style="verticalLabelPosition=bottom;html=1;verticalAlign=top;align=center;strokeColor=none;fillColor=#00BEF2;shape=mxgraph.azure.sql_database;" parent="OdURi6rOe0slorLZXRiP-87" vertex="1">
          <mxGeometry x="96.25" y="20" width="37.5" height="50" as="geometry" />
        </mxCell>
        <mxCell id="OdURi6rOe0slorLZXRiP-90" value="Email-PowerApps&amp;nbsp;" style="text;html=1;resizable=0;autosize=1;align=center;verticalAlign=middle;points=[];fillColor=none;strokeColor=none;rounded=0;fontSize=24;fontColor=#007FFF;" parent="OdURi6rOe0slorLZXRiP-87" vertex="1">
          <mxGeometry x="10" y="80" width="210" height="30" as="geometry" />
        </mxCell>
        <mxCell id="9OuG9oqcYKLen_dDnCQN-21" value="" style="shape=image;html=1;verticalAlign=top;verticalLabelPosition=bottom;labelBackgroundColor=#ffffff;imageAspect=0;aspect=fixed;image=https://cdn3.iconfinder.com/data/icons/logos-brands-3/24/logo_brand_brands_logos_microsoft_store_windows-128.png;fillColor=none;fontSize=24;fontColor=#007FFF;" parent="1" vertex="1">
          <mxGeometry x="50" y="-301" width="68" height="68" as="geometry" />
        </mxCell>
        <mxCell id="9OuG9oqcYKLen_dDnCQN-22" value="" style="shape=image;html=1;verticalAlign=top;verticalLabelPosition=bottom;labelBackgroundColor=#ffffff;imageAspect=0;aspect=fixed;image=https://cdn4.iconfinder.com/data/icons/flat-brand-logo-2/512/hp-128.png;fillColor=none;fontSize=24;fontColor=#007FFF;" parent="1" vertex="1">
          <mxGeometry x="136" y="-296" width="70" height="70" as="geometry" />
        </mxCell>
        <mxCell id="OdURi6rOe0slorLZXRiP-33" style="edgeStyle=orthogonalEdgeStyle;rounded=0;orthogonalLoop=1;jettySize=auto;html=1;fontSize=24;fontColor=#007FFF;exitX=1.067;exitY=0.506;exitDx=0;exitDy=0;exitPerimeter=0;entryX=0;entryY=0.5;entryDx=0;entryDy=0;entryPerimeter=0;" parent="1" source="9OuG9oqcYKLen_dDnCQN-3" target="OdURi6rOe0slorLZXRiP-79" edge="1">
          <mxGeometry x="20" y="-301" as="geometry">
            <mxPoint x="330" y="-118" as="targetPoint" />
            <Array as="points">
              <mxPoint x="249" y="-25" />
              <mxPoint x="249" y="-129" />
            </Array>
          </mxGeometry>
        </mxCell>
        <mxCell id="OdURi6rOe0slorLZXRiP-71" style="edgeStyle=orthogonalEdgeStyle;rounded=0;orthogonalLoop=1;jettySize=auto;html=1;entryX=0.5;entryY=0;entryDx=0;entryDy=0;entryPerimeter=0;strokeWidth=1;fontSize=29;fontColor=#007FFF;strokeColor=#4D4D4D;" parent="1" source="9OuG9oqcYKLen_dDnCQN-3" target="9OuG9oqcYKLen_dDnCQN-34" edge="1">
          <mxGeometry x="20" y="-301" as="geometry">
            <Array as="points">
              <mxPoint x="134" y="-210" />
              <mxPoint x="710" y="-210" />
            </Array>
          </mxGeometry>
        </mxCell>
        <mxCell id="9OuG9oqcYKLen_dDnCQN-3" value="" style="aspect=fixed;html=1;points=[];align=center;image;fontSize=12;image=img/lib/azure2/iot/Logic_Apps.svg;" parent="1" vertex="1">
          <mxGeometry x="100" y="-51" width="67" height="52" as="geometry" />
        </mxCell>
        <mxCell id="OdURi6rOe0slorLZXRiP-32" style="edgeStyle=orthogonalEdgeStyle;rounded=0;orthogonalLoop=1;jettySize=auto;html=1;fontSize=24;fontColor=#007FFF;" parent="1" source="9OuG9oqcYKLen_dDnCQN-3" edge="1">
          <mxGeometry x="20" y="-301" as="geometry">
            <mxPoint x="356" y="60" as="targetPoint" />
            <Array as="points">
              <mxPoint x="249" y="-25" />
              <mxPoint x="249" y="60" />
              <mxPoint x="356" y="60" />
            </Array>
          </mxGeometry>
        </mxCell>
        <mxCell id="OdURi6rOe0slorLZXRiP-59" value="Azure HP Cloud" style="text;html=1;strokeColor=none;fillColor=none;align=center;verticalAlign=middle;whiteSpace=wrap;rounded=0;fontSize=24;fontColor=#007FFF;" parent="1" vertex="1">
          <mxGeometry x="270" y="-253" width="210" height="20" as="geometry" />
        </mxCell>
        <mxCell id="OdURi6rOe0slorLZXRiP-23" value="" style="group" parent="1" vertex="1" connectable="0">
          <mxGeometry x="620" y="-61.5" width="180" height="90" as="geometry" />
        </mxCell>
        <mxCell id="9OuG9oqcYKLen_dDnCQN-34" value="" style="outlineConnect=0;dashed=0;verticalLabelPosition=bottom;verticalAlign=top;align=center;html=1;shape=mxgraph.aws3.customer_gateway;fillColor=#F58534;gradientColor=none;fontSize=24;fontColor=#007FFF;" parent="OdURi6rOe0slorLZXRiP-23" vertex="1">
          <mxGeometry x="60" width="60" height="60" as="geometry" />
        </mxCell>
        <mxCell id="9OuG9oqcYKLen_dDnCQN-35" value="GW OnPremise" style="text;html=1;resizable=0;autosize=1;align=center;verticalAlign=middle;points=[];fillColor=none;strokeColor=none;rounded=0;fontSize=24;fontColor=#007FFF;" parent="OdURi6rOe0slorLZXRiP-23" vertex="1">
          <mxGeometry y="60" width="180" height="30" as="geometry" />
        </mxCell>
        <mxCell id="OdURi6rOe0slorLZXRiP-78" value="" style="group" parent="1" vertex="1" connectable="0">
          <mxGeometry x="330" y="-153.75" width="550" height="133.75" as="geometry" />
        </mxCell>
        <mxCell id="OdURi6rOe0slorLZXRiP-77" value="" style="rounded=0;whiteSpace=wrap;html=1;fillColor=none;fontSize=29;fontColor=#007FFF;" parent="OdURi6rOe0slorLZXRiP-78" vertex="1">
          <mxGeometry x="-40" y="-10" width="230" height="120" as="geometry" />
        </mxCell>
        <mxCell id="OdURi6rOe0slorLZXRiP-79" value="" style="verticalLabelPosition=bottom;html=1;verticalAlign=top;align=center;strokeColor=none;fillColor=#00BEF2;shape=mxgraph.azure.sql_database;" parent="OdURi6rOe0slorLZXRiP-78" vertex="1">
          <mxGeometry x="51.25" width="37.5" height="50" as="geometry" />
        </mxCell>
        <mxCell id="OdURi6rOe0slorLZXRiP-80" value="&lt;font style=&quot;font-size: 24px&quot;&gt;GSS-Travel-Dev&lt;/font&gt;" style="text;html=1;resizable=0;autosize=1;align=center;verticalAlign=middle;points=[];fillColor=none;strokeColor=none;rounded=0;fontSize=24;fontColor=#007FFF;" parent="OdURi6rOe0slorLZXRiP-78" vertex="1">
          <mxGeometry x="-25" y="62.5" width="190" height="30" as="geometry" />
        </mxCell>
        <mxCell id="OdURi6rOe0slorLZXRiP-84" value="&lt;font style=&quot;font-size: 16px&quot; color=&quot;#b3b3b3&quot;&gt;gss-travel-dev.database.windows.net&lt;/font&gt;" style="text;html=1;strokeColor=none;fillColor=none;align=center;verticalAlign=middle;whiteSpace=wrap;rounded=0;fontSize=29;fontColor=#007FFF;" parent="OdURi6rOe0slorLZXRiP-78" vertex="1">
          <mxGeometry x="-160" y="110" width="470" height="20" as="geometry" />
        </mxCell>
        <mxCell id="OdURi6rOe0slorLZXRiP-93" style="edgeStyle=orthogonalEdgeStyle;rounded=0;orthogonalLoop=1;jettySize=auto;html=1;exitX=1;exitY=0.5;exitDx=0;exitDy=0;entryX=0;entryY=0.5;entryDx=0;entryDy=0;entryPerimeter=0;strokeColor=#4D4D4D;strokeWidth=1;fontSize=29;fontColor=#007FFF;" parent="1" source="OdURi6rOe0slorLZXRiP-77" target="9OuG9oqcYKLen_dDnCQN-34" edge="1">
          <mxGeometry relative="1" as="geometry" />
        </mxCell>
        <mxCell id="OdURi6rOe0slorLZXRiP-94" style="edgeStyle=orthogonalEdgeStyle;rounded=0;orthogonalLoop=1;jettySize=auto;html=1;exitX=1;exitY=0.5;exitDx=0;exitDy=0;entryX=0;entryY=0.5;entryDx=0;entryDy=0;entryPerimeter=0;strokeColor=#4D4D4D;strokeWidth=1;fontSize=29;fontColor=#007FFF;" parent="1" source="OdURi6rOe0slorLZXRiP-85" target="9OuG9oqcYKLen_dDnCQN-34" edge="1">
          <mxGeometry relative="1" as="geometry" />
        </mxCell>
      </root>
    </mxGraphModel>
  </diagram>
</mxfile>
